/* XPM */
static char *lin[] = {
/* columns rows colors chars-per-pixel */
"25 25 119 2 ",
"   c None",
".  c #253137",
"X  c #263238",
"o  c #273238",
"O  c #273239",
"+  c #273339",
"@  c #28343A",
"#  c #2A353A",
"$  c #2D373A",
"%  c #474933",
"&  c #4C4E3C",
"*  c #2F3A40",
"=  c #323D44",
"-  c #333E44",
";  c #333F45",
":  c #323E46",
">  c #353F45",
",  c #343F46",
"<  c #374040",
"1  c #364147",
"2  c #374249",
"3  c #37434A",
"4  c #39444B",
"5  c #3A454B",
"6  c #3C474C",
"7  c #475056",
"8  c #4F595E",
"9  c #4F595F",
"0  c #646451",
"q  c #6E725D",
"w  c #5E676C",
"e  c #676C66",
"r  c #60696E",
"t  c #606A6E",
"y  c #636C70",
"u  c #6E7370",
"i  c #687278",
"p  c #88772E",
"a  c #867633",
"s  c #867841",
"d  c #817A54",
"f  c #817E62",
"g  c #7E8073",
"h  c #B7921F",
"j  c #B89933",
"k  c #B09539",
"l  c #C39914",
"z  c #D2A412",
"x  c #D7A610",
"c  c #DBAC1F",
"v  c #EBB107",
"b  c #E5B00E",
"n  c #EEB60C",
"m  c #F5BA09",
"M  c #F5BB09",
"N  c #FBBE08",
"B  c #E1AE11",
"V  c #ECB611",
"C  c #E0B019",
"Z  c #C4A023",
"A  c #D1A826",
"S  c #FDC007",
"D  c #FFC106",
"F  c #FEC007",
"G  c #FFC107",
"H  c #FFC207",
"J  c #FDC00A",
"K  c #8F8042",
"L  c #9B8644",
"P  c #B09741",
"I  c #BCA143",
"U  c #BEAC66",
"Y  c #D8BA5A",
"T  c #EBC54E",
"R  c #ECC95A",
"E  c #F7D670",
"W  c #7F868B",
"Q  c #818586",
"!  c #82898E",
"~  c #848B8E",
"^  c #868D91",
"/  c #969993",
"(  c #A1A190",
")  c #B0AE9B",
"_  c #959CA0",
"`  c #9A9FA0",
"'  c #9CA3A7",
"]  c #9FA6A9",
"[  c #B5B6AA",
"{  c #ADB2B7",
"}  c #B8BBB6",
"|  c #B1B7BA",
" . c #EDD588",
".. c #F1DEA1",
"X. c #C2C6CA",
"o. c #C5CBCE",
"O. c #D0D5D7",
"+. c #DFDED5",
"@. c #D5D9DB",
"#. c #E1E1D8",
"$. c #EEEBDD",
"%. c #DDE1E4",
"&. c #DFE3E5",
"*. c #E0E4E6",
"=. c #E0E4E7",
"-. c #E2E5E7",
";. c #E8E9E4",
":. c #EFEEE7",
">. c #E3E6E9",
",. c #E3E7EA",
"<. c #E6EAEC",
"1. c #EDEEEA",
"2. c #EDEEEB",
"3. c #E9EDEF",
"4. c #EBEFF1",
"5. c #ECEFF1",
"6. c #ECF0F2",
"7. c #EDF0F2",
"8. c #EDF1F3",
/* pixels */
"                                                  ",
"                                                  ",
"                                                  ",
"                      X X X                       ",
"                      X X X X                     ",
"                    = 5 2 9 5 X                   ",
"                      u e Q r                     ",
"                      P j L 0 #                   ",
"                    h B v c s $                   ",
"                    d Y T  .) 6 .                 ",
"                    ~ #.$.1.@.r X                 ",
"                  7 | 4.5.5.<._ = X               ",
"                1 W %.5.5.5.6.o.w > #             ",
"                y X.5.5.5.5.6.%.^ 9 *             ",
"              = ! -.6.5.5.5.6.,.] r =             ",
"              a ( ,.6.5.5.5.5.;.} i <             ",
"            G n I [ -.5.5.5.1...U q p             ",
"          G G G b K ` -.5.5.:.E C Z V G           ",
"          G G G G l f O.6.3.+.R J G G G G         ",
"          G G G G M k / { ' g A G G G G           ",
"          G G G G G z & 2 > % x G G G             ",
"              G G G N         M G G               ",
"                                                  ",
"                                                  ",
"                                                  "
};
